<svg width="1440" height="75" viewBox="0 0 1440 75" fill="none" xmlns="http://www.w3.org/2000/svg">
<path fill-rule="evenodd" clip-rule="evenodd" d="M1440 0V74.2058C1263.6 78.3184 1132.5 65.8531 973.981 50.7804C777.101 32.0607 537.923 9.31919 117.142 9.31919C92.5671 9.31919 55.1318 9.21593 7.07361 9.08335C4.74072 9.07692 2.38269 9.07041 0 9.06385V0L1440 0Z" fill="#4E5969"/>
<path fill-rule="evenodd" clip-rule="evenodd" d="M1440 0V58.5836C1263.6 61.8303 1132.5 51.9893 973.981 40.0898C777.101 25.3111 537.923 7.35726 117.142 7.35726C92.5671 7.35726 55.1318 7.27573 7.07361 7.17107C4.74072 7.16599 2.38269 7.16085 0 7.15567V0L1440 0Z" fill="#222F44"/>
</svg>
