<svg width="26" height="26" viewBox="0 0 26 26" fill="none" xmlns="http://www.w3.org/2000/svg">
<path d="M25.7073 24.2938L19.4553 18.0431C21.2674 15.8676 22.171 13.0772 21.9781 10.2524C21.7852 7.42767 20.5108 4.78601 18.4198 2.87697C16.3289 0.967939 13.5825 -0.0614869 10.7519 0.00284319C7.92125 0.0671733 5.22442 1.22031 3.22236 3.22236C1.22031 5.22442 0.0671733 7.92125 0.00284319 10.7519C-0.0614869 13.5825 0.967939 16.3289 2.87697 18.4198C4.78601 20.5108 7.42767 21.7852 10.2524 21.9781C13.0772 22.171 15.8676 21.2674 18.0431 19.4553L24.2938 25.7073C24.3866 25.8001 24.4968 25.8737 24.618 25.9239C24.7393 25.9741 24.8693 26 25.0005 26C25.1318 26 25.2617 25.9741 25.383 25.9239C25.5043 25.8737 25.6145 25.8001 25.7073 25.7073C25.8001 25.6145 25.8737 25.5043 25.9239 25.383C25.9741 25.2617 26 25.1318 26 25.0005C26 24.8693 25.9741 24.7393 25.9239 24.618C25.8737 24.4968 25.8001 24.3866 25.7073 24.2938ZM2.02543 11.0157C2.02543 9.23758 2.5527 7.49941 3.54056 6.02097C4.52843 4.54253 5.93251 3.39023 7.57527 2.70978C9.21802 2.02932 11.0257 1.85129 12.7696 2.19818C14.5135 2.54507 16.1154 3.40131 17.3728 4.65862C18.6301 5.91593 19.4863 7.51784 19.8332 9.26178C20.1801 11.0057 20.0021 12.8134 19.3216 14.4561C18.6411 16.0989 17.4888 17.5029 16.0104 18.4908C14.532 19.4787 12.7938 20.0059 11.0157 20.0059C8.63213 20.0033 6.34696 19.0553 4.66154 17.3698C2.97611 15.6844 2.02808 13.3992 2.02543 11.0157Z" fill="#BFBFBF"/>
</svg>
