<svg xmlns="http://www.w3.org/2000/svg" width="160" height="160" fill="none"><path fill="#212529" d="M35.75 119.903a.353.353 0 0 1-.355-.355v-5.963a.356.356 0 0 1 .605-.251.356.356 0 0 1 .105.251v5.963a.354.354 0 0 1-.355.355ZM51.332 68.969c-8.235 2.928-9.974-12.707-2.36-10.169 7.613 2.538 4.383-11.127 4.383-11.127-8.66-29.585 17.942-35.228 17.942-35.228s2.822-1.74 6.726 3.655c0 0 8.288-3.567 14.056 7.082 5.768 10.648-.87 27.188 2.147 32.033 3.266 5.2 6.389-.444 8.324 4.295 1.632 3.993-6.336 8.518-8.324 8.572l-42.894.887Z"/><path fill="#212529" d="M49.326 69.697c-2.076 0-3.372-1.243-4.046-2.13-1.775-2.36-2.059-6.034-.621-8.022.958-1.33 2.52-1.721 4.419-1.082 1.42.461 2.52.372 3.265-.32 2.485-2.271.728-10.08.657-10.382-2.75-9.459-2.236-17.48 1.562-23.834 5.413-9.051 15.777-11.624 16.61-11.82.445-.23 3.266-1.42 6.975 3.568 1.546-.501 3.188-.629 4.792-.373 2.645.408 6.407 2.076 9.46 7.702 3.407 6.3 2.537 14.641 1.845 21.332-.497 4.703-.905 8.767.284 10.684 1.562 2.502 3.035 2.325 4.437 2.147 1.402-.177 2.875-.337 3.922 2.219.461 1.135.266 2.378-.586 3.691-1.863 2.857-6.478 5.324-8.057 5.36l-42.841.887a6.282 6.282 0 0 1-2.077.373ZM47.41 58.87a2.502 2.502 0 0 0-2.166 1.082c-1.242 1.74-.958 5.094.604 7.188.763.994 2.467 2.538 5.377 1.49h.107l42.894-.886c1.243-.036 5.662-2.237 7.472-5.023.727-1.118.905-2.13.532-3.053-.834-2.04-1.828-1.934-3.177-1.774-1.348.16-3.336.39-5.128-2.485-1.331-2.112-.888-6.282-.39-11.127.691-6.602 1.543-14.819-1.758-20.924-2.307-4.242-5.395-6.78-8.944-7.347-2.662-.408-4.65.426-4.668.443l-.266.107-.16-.23c-3.673-5.077-6.229-3.586-6.247-3.568l-.053.036h-.053c-.107.035-10.773 2.395-16.221 11.517-3.691 6.176-4.188 14.02-1.473 23.285.089.337 1.97 8.483-.87 11.074-.94.87-2.289 1.011-3.975.461a4.42 4.42 0 0 0-1.438-.266Z"/><path fill="#212529" d="M88.317 32.676h-.107c-9.707-2.768-16.7-11.11-16.77-11.198a.359.359 0 1 1 .55-.462c.07.09 6.92 8.27 16.415 10.968a.353.353 0 0 1 .249.444.338.338 0 0 1-.337.248Z"/><path fill="#212529" d="M84.306 43.644h-.089a.355.355 0 0 1-.32-.39.336.336 0 0 1 .373-.32c.125 0 3.089.178 3.62-4.667.303-2.662-.443-3.461-1.153-4.224-.71-.763-1.384-1.473-1.189-3.479a.357.357 0 1 1 .71.071c-.16 1.686.373 2.254.994 2.929.621.674 1.668 1.792 1.349 4.791-.568 5.04-3.71 5.289-4.295 5.289ZM80.046 33.12h-.053l-4.028-.355a.462.462 0 0 1-.361-.662.425.425 0 0 1 .432-.225l4.046.355a.444.444 0 0 1 .408.479.48.48 0 0 1-.444.408Z"/><path fill="#ADB5BD" d="M95.948 119.548c-1.047-1.828-1.633-2.573-1.402-4.667.337-3.213.851-8.341 1.1-13.169 2.431 4.828 8.252 13.044 18.067 7.898 2.005-1.047-.231-33.116-27.242-43.729l-2.964 4.206a11.609 11.609 0 0 1-1.668 2.059C70.587 82.794 61.607 65.88 61.607 65.88c-27.561 8.252-25.112 31.2-27.632 43.729-1.313 6.548 6.921 3.833 14.854 3.265 3.425-.23 4.047-5.608 4.1-9.832a.23.23 0 0 1 .222-.239.231.231 0 0 1 .24.222l.94 9.477a15.034 15.034 0 0 1-1.455 8.057"/><path fill="#F8F9FA" d="M61.607 65.881s5.182 2.52 7.667-12.388l7.79-.514s.48 14.393 9.407 12.902c0 0-11.252 22.645-24.864 0ZM92.611 31.824a.354.354 0 0 1-.355-.32c-1.1-10.63-9.973-13.345-10.062-13.363a.355.355 0 0 1-.23-.443.338.338 0 0 1 .425-.249c.107.036 2.396.728 4.863 2.786 2.467 2.06 5.11 5.396 5.714 11.199a.356.356 0 0 1-.32.39h-.035ZM92.753 39.562a.355.355 0 0 1-.355-.355v-4.88a.355.355 0 1 1 .71 0v4.88a.355.355 0 0 1-.355.355ZM55.2 29.872h-.089a.373.373 0 0 1-.248-.444c1.739-5.98 6.158-9.228 6.336-9.37a.355.355 0 0 1 .496.089.353.353 0 0 1-.07.497c-.054.018-4.42 3.247-6.088 8.98a.319.319 0 0 1-.337.248ZM54.384 35.746a.372.372 0 0 1-.355-.284 6.585 6.585 0 0 1 0-2.999.357.357 0 0 1 .288-.27.355.355 0 0 1 .138.004.338.338 0 0 1 .266.426 6.211 6.211 0 0 0 0 2.68.338.338 0 0 1-.266.426l-.07.017ZM123.811 86.255c5.004 34.518-8.661 36.825-17.197 30.205-4.171-3.23-7.046-8.164-7.791-9.956a.586.586 0 0 1 .355-.799c1.739-.585 6.797-2.466 8.696-5.111"/><path fill="#212529" d="M114.245 119.779c-2.538 0-5.271-1.029-7.862-3.035-4.419-3.443-7.259-8.572-7.898-10.098a1.03 1.03 0 0 1 .018-.763.983.983 0 0 1 .55-.515c1.544-.514 6.673-2.396 8.519-4.987a.359.359 0 0 1 .497-.071.364.364 0 0 1 .145.37.332.332 0 0 1-.057.127c-1.916 2.68-6.85 4.561-8.873 5.236a.35.35 0 0 0-.142.142.3.3 0 0 0 0 .177c.78 1.863 3.691 6.726 7.684 9.814 3.994 3.088 8.146 3.709 11.359 1.846 3.212-1.864 8.607-8.749 5.27-31.732a.353.353 0 0 1 .006-.137.342.342 0 0 1 .296-.253.35.35 0 0 1 .268.065.353.353 0 0 1 .14.236c1.349 9.335 1.438 16.931.231 22.557-1.047 4.898-3.017 8.217-5.856 9.885a8.72 8.72 0 0 1-4.295 1.136Z"/><path fill="#212529" d="M137.547 119.424H22.475v.71h115.072v-.71Z"/><path fill="#F8F9FA" d="M123.171 87.373s5.733-12.228 0-12.618c0 0 1.899-5.822-3.265-5.076 0 0-.053-8.235-8.164-6.194 0 0-.816 4.508-4.88 1.9 0 0-3.621-5.503-4.455-.267-.159.958 4.472 4.738 5.289 6.247 2.165 4.029 3.673 11.73 3.159 19.77-.213 3.443-.497 7.809-.426 11.465l12.742-15.227Z"/><path fill="#F8F9FA" d="M112.896 63.024c2.893-1.26 1.438 5.785-1.597 8.075a1.335 1.335 0 0 1-1.118.23c-.728-.195-1.935-1.58-1.171-3.709"/><path fill="#212529" d="M110.501 71.72a1.51 1.51 0 0 1-.409-.053c-.479-.125-.993-.586-1.313-1.19-.319-.603-.497-1.898-.106-2.963a.348.348 0 0 1 .167-.254.349.349 0 0 1 .302-.032.364.364 0 0 1 .216.214.352.352 0 0 1-.029.303c-.39 1.118-.177 1.934.071 2.413.249.48.621.763.87.817a.975.975 0 0 0 .816-.16c2.272-1.722 3.55-6.123 2.822-7.347-.071-.107-.231-.39-.87-.125a.354.354 0 0 1-.427-.442.36.36 0 0 1 .143-.197c1.101-.479 1.615.125 1.775.409.941 1.615-.55 6.406-3.017 8.27-.29.22-.646.34-1.011.337Z"/><path fill="#F8F9FA" d="M117.049 66.378c4.259-1.544.639 8.217-3.301 9.282 0 0-1.988.213-1.934-2.094"/><path fill="#212529" d="M113.623 76.014a2.181 2.181 0 0 1-1.49-.532c-.462-.426-.692-1.082-.675-1.917a.358.358 0 0 1 .355-.355h.018a.371.371 0 0 1 .337.373c-.018.621.142 1.083.444 1.367.297.249.678.376 1.065.355 2.058-.586 4.153-3.834 4.774-6.425.248-1.047.195-1.863-.142-2.165-.337-.302-.781-.142-1.154 0a.356.356 0 0 1-.231-.674c.799-.284 1.42-.231 1.864.142.444.372.674 1.49.355 2.857-.586 2.484-2.751 6.265-5.307 6.957h-.213v.017Z"/><path fill="#F8F9FA" d="M121.006 70.549c4.029-.781 1.242 8.784-4.774 9.228 0 0-2.662.089-2.36-2.343"/><path fill="#212529" d="M116.215 80.132c-.266 0-1.473-.053-2.183-.834-.444-.48-.603-1.118-.515-1.9a.368.368 0 0 1 .129-.24.35.35 0 0 1 .262-.079.39.39 0 0 1 .319.409c-.071.567.036 1.011.32 1.33.568.622 1.668.604 1.668.604 2.857-.213 4.88-2.627 5.75-4.632.657-1.526.763-2.964.266-3.603-.248-.301-.639-.39-1.171-.284a.354.354 0 0 1-.408-.284.372.372 0 0 1 .284-.425c.994-.196 1.561.195 1.845.55.693.852.622 2.52-.159 4.33-.994 2.29-3.195 4.827-6.371 5.058h-.036Z"/><path fill="#F8F9FA" d="m111.228 64.94-9.016-11.961-3.638 3.762 10.187 10.648a.693.693 0 0 0 .657.178c.479-.142 1.313-.568 1.899-1.97a.668.668 0 0 0 .041-.34.669.669 0 0 0-.13-.317Z"/><path fill="#212529" d="M109.24 67.94a.975.975 0 0 1-.728-.32L98.094 56.741l4.153-4.312 9.264 12.299a1.013 1.013 0 0 1 .142.993c-.656 1.58-1.632 2.041-2.147 2.183a.694.694 0 0 1-.266.036ZM99.07 56.74l9.957 10.4a.334.334 0 0 0 .284.089c.408-.107 1.135-.48 1.686-1.775a.298.298 0 0 0-.054-.302l-8.767-11.642-3.105 3.23Z"/><path fill="#F8F9FA" d="M59.14 35.09c-1.898 1.224-2.502 1.952-2.253 4.206.16 1.313 1.189 3.603 2.254 4.383 1.064.781 1.845.764 2.271 1.172 1.012.976 1.065 2.023 1.19 3.088.319 2.662 2.786 4.33 5.093 5.714 3.673 2.201 8.802 1.598 11.872-1.384 1.74-1.686 3.248-3.745 3.887-6.087.78-2.893 3.691-5.111 3.762-5.218.781-1.366 1.136-2.449.959-4.028-.231-2.06-3.141-3.834-4.81-5.058-3.869-2.875-6.832-5.892-10.453-9.46a1.296 1.296 0 0 0-1.952.178c-2.573 3.532-2.822 6.407-9.548 10.311"/><path fill="#212529" d="M72.54 55.25h-.107c-5.68-.053-8.466-3.496-9.815-6.37a17.784 17.784 0 0 1-1.561-6.265.338.338 0 0 1 .337-.355h.018a.339.339 0 0 1 .355.337 17.447 17.447 0 0 0 1.508 5.998c1.828 3.905 4.916 5.91 9.158 5.946h.124c4.508 0 7.79-2.343 9.743-6.975 1.473-3.514 1.58-7.081 1.597-7.117a.356.356 0 0 1 .696-.14c.01.053.01.107-.004.158a22.523 22.523 0 0 1-1.632 7.383c-2.041 4.845-5.644 7.4-10.418 7.4Z"/><path fill="#212529" d="M61.181 44.85a4.312 4.312 0 0 1-2.626-.904c-1.1-.888-1.775-2.307-1.988-4.224-.337-3.035.55-3.71 1.349-4.313.799-.603 1.065-.816.905-2.466a.373.373 0 0 1 .32-.39.355.355 0 0 1 .39.319c.195 2.04-.55 2.608-1.19 3.105-.638.497-1.348 1.03-1.064 3.656.532 4.845 3.958 4.526 4.1 4.508a.335.335 0 0 1 .35.17.355.355 0 0 1-.28.522l-.266.018ZM66.346 39.42c.431 0 .78-.532.78-1.189s-.349-1.189-.78-1.189c-.431 0-.781.532-.781 1.189s.35 1.19.78 1.19ZM64.376 35.835a.461.461 0 0 1-.44-.513.444.444 0 0 1 .333-.374l3.922-1.03a.427.427 0 0 1 .533.302.443.443 0 0 1-.302.55L64.5 35.817l-.124.018ZM70.783 44.85h-.018c-.781-.07-1.278-.336-1.455-.816-.39-1.011.94-2.449 1.224-2.715a.355.355 0 0 1 .497-.018.373.373 0 0 1 0 .515c-.515.532-1.225 1.544-1.047 1.97.178.426.55.337.816.355a.338.338 0 0 1 .338.373.373.373 0 0 1-.355.337Z"/><path fill="#F8F9FA" d="M91.99 58.658c10.184 0 18.439-8.256 18.439-18.44 0-10.183-8.255-18.439-18.44-18.439-10.183 0-18.438 8.256-18.438 18.44 0 10.183 8.255 18.439 18.439 18.439Z"/><path fill="#212529" d="M91.99 59.03c-10.364 0-18.794-8.447-18.794-18.811a18.795 18.795 0 0 1 37.588 0c0 10.364-8.43 18.812-18.794 18.812Zm0-36.896A18.102 18.102 0 0 0 73.906 40.22c0 9.974 8.11 18.102 18.084 18.102s18.084-8.128 18.084-18.102A18.1 18.1 0 0 0 91.99 22.134Z"/><path fill="#F8F9FA" d="M91.99 55.481c8.243 0 14.926-6.682 14.926-14.925s-6.683-14.925-14.926-14.925-14.925 6.682-14.925 14.925 6.682 14.925 14.925 14.925Z"/><path fill="#212529" d="M91.99 55.836a15.28 15.28 0 1 1 15.28-15.28 15.298 15.298 0 0 1-15.28 15.28Zm0-29.85a14.57 14.57 0 1 0 14.57 14.57 14.586 14.586 0 0 0-14.57-14.57Z"/><path fill="#212529" d="M80.525 39.456c.872 0 1.58-1.08 1.58-2.414 0-1.333-.708-2.413-1.58-2.413-.872 0-1.58 1.08-1.58 2.413 0 1.333.708 2.414 1.58 2.414Z"/><path fill="#F8F9FA" d="M85.14 53.83s10.293-11.89 3.495-27.827L85.14 53.831Z"/><path fill="#212529" d="M85.14 54.186a.355.355 0 0 1-.266-.586c.017-.035 2.555-3 4.24-7.862 1.545-4.455 2.663-11.482-.798-19.593a.355.355 0 0 1 .178-.461.353.353 0 0 1 .479.177c3.55 8.341 2.396 15.564.799 20.143-1.722 4.97-4.26 7.933-4.366 8.057a.372.372 0 0 1-.266.125Z"/><path fill="#F8F9FA" d="M48.829 112.875s.266 5.413 0 6.904v-6.904Z"/><path fill="#212529" d="M48.83 120.134h-.054a.37.37 0 0 1-.284-.426c.249-1.438 0-6.762-.017-6.815a.334.334 0 0 1 .092-.25.34.34 0 0 1 .245-.105.332.332 0 0 1 .262.085.336.336 0 0 1 .11.252c.018.213.267 5.449 0 6.957a.352.352 0 0 1-.12.217.352.352 0 0 1-.234.085ZM69.522 51.453c-.692 0-1.26-.692-1.26-1.527 0-.834.568-1.544 1.26-1.544.692 0 1.26.693 1.26 1.544 0 .852-.568 1.527-1.26 1.527Zm0-2.36c-.302 0-.55.39-.55.833 0 .444.249.817.55.817.302 0 .55-.373.55-.817 0-.443-.248-.834-.55-.834ZM118.362 83.965a6.9 6.9 0 0 1-.852-.07c-1.544-.231-2.52-.657-2.91-1.26a.911.911 0 0 1-.142-.764l.674.195a.33.33 0 0 0 .021.125.34.34 0 0 0 .068.106c.178.249.71.675 2.378.905l.746.053c3.141 0 5.59-2.857 6.193-4.472a2.169 2.169 0 0 0-.514-2.307.333.333 0 0 1-.018-.497.353.353 0 0 1 .497-.035c.053.053 1.384 1.277.692 3.088-.692 1.81-3.319 4.933-6.833 4.933Z"/><path fill="#212529" d="M123.42 86.663a.817.817 0 0 1-.408-.089.358.358 0 0 1-.18-.206.35.35 0 0 1 .228-.45.342.342 0 0 1 .272.035.99.99 0 0 0 .514-.089c.799-.337 1.722-1.171 1.81-1.437a.304.304 0 0 0-.053-.302l-2.129-3.106a.333.333 0 0 1-.008-.384.35.35 0 0 1 .096-.095.362.362 0 0 1 .267-.06.354.354 0 0 1 .23.149l2.13 3.088c.092.136.153.291.178.454.024.163.012.329-.036.486-.195.55-1.331 1.509-2.219 1.864a1.792 1.792 0 0 1-.692.142Z"/><path fill="#212529" d="M123.172 86.61a.372.372 0 0 1-.284-.142l-2.183-3.177a.353.353 0 0 1-.008-.397.35.35 0 0 1 .363-.159.35.35 0 0 1 .231.148l2.182 3.176a.346.346 0 0 1 .052.271.358.358 0 0 1-.158.226.354.354 0 0 1-.195.054Z"/><path fill="#F8F9FA" d="M92.097 128.422c4.273 0 7.737-3.425 7.737-7.649 0-4.225-3.464-7.649-7.737-7.649-4.274 0-7.738 3.424-7.738 7.649 0 4.224 3.464 7.649 7.738 7.649Z"/><path fill="#212529" d="M92.185 128.777h-.567l-3.266-.391 2.627-.319v-.089l.301.035a7.258 7.258 0 0 0 6.354-7.24c0-3.798-2.485-6.762-6.034-7.188l-2.91-.337 2.91-.355.142-.053c.136-.051.28-.075.426-.071a7.994 7.994 0 0 1 5.989 2.674 7.998 7.998 0 0 1 1.979 6.253 8.04 8.04 0 0 1-7.95 7.081Zm2.574-14.819c2.2 1.366 3.585 3.851 3.585 6.815a8.037 8.037 0 0 1-4.047 6.992 7.484 7.484 0 0 0 2.432-1.296 7.185 7.185 0 0 0 2.697-4.862 7.24 7.24 0 0 0-1.81-5.697 7.473 7.473 0 0 0-2.857-1.952Z"/><path fill="#212529" d="M91.724 128.741h-.426c-4.029 0-7.294-3.585-7.294-7.968 0-4.384 3.212-8.004 7.17-8.004.29 0 .581.018.87.053 3.584.497 6.3 3.904 6.3 7.951 0 4.046-2.716 7.471-6.3 7.95l-.32.018Zm-.55-15.262c-3.567 0-6.46 3.283-6.46 7.294 0 4.011 2.964 7.258 6.584 7.258h.266c.125.012.25.006.373-.017 3.248-.426 5.697-3.55 5.697-7.241 0-3.692-2.45-6.797-5.697-7.241a5.565 5.565 0 0 0-.763-.053Z"/><path fill="#212529" d="M91.174 126.647c-2.911 0-5.271-2.627-5.271-5.874 0-3.248 2.36-5.857 5.27-5.857l.64.036c2.626.355 4.614 2.857 4.614 5.821 0 2.963-1.988 5.466-4.615 5.821a3.907 3.907 0 0 1-.638.053Zm0-11.021c-2.52 0-4.562 2.307-4.562 5.147 0 2.839 2.041 5.164 4.562 5.164l.532-.035c2.29-.32 4.01-2.521 4.01-5.129 0-2.609-1.72-4.81-4.01-5.111a2.637 2.637 0 0 0-.532-.036ZM98.592 117.17h-1.597a.353.353 0 0 1-.355-.355.356.356 0 0 1 .355-.355h1.597a.357.357 0 0 1 .355.355.354.354 0 0 1-.355.355ZM99.213 118.98h-1.508a.353.353 0 0 1-.355-.355.356.356 0 0 1 .355-.355h1.508a.358.358 0 0 1 .355.355.354.354 0 0 1-.355.355ZM99.817 121.429h-1.828a.353.353 0 0 1-.355-.355.356.356 0 0 1 .355-.355h1.828a.36.36 0 0 1 .251.104.357.357 0 0 1 0 .502.355.355 0 0 1-.251.104ZM99.106 123.985h-1.615a.353.353 0 0 1-.355-.355.356.356 0 0 1 .355-.355h1.615a.357.357 0 0 1 .355.355.354.354 0 0 1-.355.355ZM97.492 126.611H95.93a.356.356 0 0 1 0-.709h1.562a.353.353 0 0 1 .355.355.356.356 0 0 1-.355.354Z"/><path fill="#212529" d="M91.742 124.375a2.556 2.556 0 0 1-1.509-.461c-.852-.639-1.278-1.917-1.278-3.78.018-1.597.39-2.52 1.136-2.84 1.154-.497 2.627.834 2.786.976a.355.355 0 0 1 .018.497.327.327 0 0 1-.245.118.337.337 0 0 1-.252-.1c-.337-.302-1.402-1.1-2.023-.834-.621.266-.692.958-.71 2.183 0 1.633.32 2.715.994 3.194.674.479 1.721.302 2.413.089a.343.343 0 0 1 .382.106c.029.037.05.079.062.125a.336.336 0 0 1-.23.443 4.96 4.96 0 0 1-1.544.284Z"/><path fill="#F8F9FA" d="M63.435 108.279s-16.434 2.467-15.901 5.395c.532 2.928 1.686 4.845.124 8.075-.78 1.615-2.484 3.691-2.946 6.051-.461 2.361.55 5.147 2.822 7.028 4.56 3.78 4.437 6.726 25.609 0 0 0 7.525-1.916 4.295-8.163-3.23-6.247-4.686-3.355-1.775-11.767 0 0 1.331-3.478-2.857-2.91 0 0-3.337.142-4.33-1.438-.994-1.579-1.704-3.975-5.04-2.271Z"/><path fill="#212529" d="M53.035 124.446s2.77-6.69 4.846-7.276c2.076-.586 14.907-4.277 15.723-3.354.817.923-.355 7.045-2.076 7.4-1.722.355-13.523 4.047-12.707 4.97.817.922 13.044-2.308 14.198-1.615 1.153.692 4.224 4.507.852 8.536-3.372 4.029-19.096 6.886-20.48 5.732-1.385-1.153-7.17-7.578-6.709-9.53.462-1.952-.586-4.135 1.509-3.177 2.094.959 3.602.994 4.844-1.686Z"/><path fill="#212529" d="M55.573 139.389c-2.165 0-4.206-.337-5.324-1.402-4.241-4.01-7.578-7.169-5.27-11.997 2.164-4.543 3.353-6.655 3.371-6.69a.34.34 0 0 1 .213-.167.337.337 0 0 1 .266.043.353.353 0 0 1 .142.479c-.017.017-1.189 2.129-3.354 6.637-2.165 4.508.94 7.223 5.129 11.181 1.42 1.349 5.27 1.579 10.542.603 7.294-1.331 15.156-4.543 16.15-6.62 1.348-2.75-.586-5.306-2.148-7.347a17.668 17.668 0 0 1-1.189-1.686c-.692-1.189-.035-3.336.604-5.43.567-1.811 1.206-3.887.496-4.384-1.384-.994-9.831.887-13.895 1.793l-2.077.443c-3.602.763-6.886 6.939-6.921 6.993a.359.359 0 0 1-.502.212.36.36 0 0 1-.184-.238.354.354 0 0 1 .065-.294c.142-.266 3.46-6.531 7.4-7.365l2.059-.444c6.495-1.455 12.955-2.768 14.464-1.686 1.118.799.461 2.929-.231 5.183-.568 1.845-1.207 3.939-.657 4.862a15.37 15.37 0 0 0 1.136 1.615c1.58 2.077 3.745 4.934 2.218 8.075-1.242 2.574-9.778 5.768-16.664 7.028-1.58.284-3.762.603-5.839.603Z"/><path fill="#212529" d="M49.752 122.494a.386.386 0 0 1-.337-.213c-.337-.852-3.319-8.288-.958-9.903 2.36-1.615 14.304-4.17 15.102-3.851a.358.358 0 0 1 .213.462.411.411 0 0 1-.443.213c-.817-.089-12.352 2.289-14.464 3.762-1.42.976-.018 6.052 1.207 9.033a.336.336 0 0 1-.178.462l-.142.035ZM59.956 107.942c-1.242 0-2.52-.302-3.283-1.296a.354.354 0 0 1 .071-.497.332.332 0 0 1 .264-.075.33.33 0 0 1 .233.146c1.526 1.988 6.034.426 6.07.408a.346.346 0 0 1 .138-.023.379.379 0 0 1 .137.032.36.36 0 0 1 .186.204.374.374 0 0 1-.213.462c-.124.035-1.828.639-3.602.639Z"/><path fill="#212529" d="M57.703 114.029a.356.356 0 0 1-.319-.537.35.35 0 0 1 .195-.155c1.792-.657 6.087-2.148 6.992-1.669h.053c.284-.124.64-1.047.817-1.845a.353.353 0 0 1 .408-.266.371.371 0 0 1 .284.425c-.071.32-.462 1.988-1.207 2.325a.726.726 0 0 1-.692-.017c-.48-.213-3.71.727-6.424 1.721l-.107.018ZM50.213 125.831a1.846 1.846 0 1 0 0-3.692 1.846 1.846 0 0 0 0 3.692ZM56.301 107.001a1.846 1.846 0 1 0 0-3.691 1.846 1.846 0 0 0 0 3.691Z"/><path fill="#212529" d="M65.777 110.124a1.845 1.845 0 1 0 .001-3.69 1.845 1.845 0 0 0 0 3.69Z"/><path fill="#F8F9FA" d="m62.53 142.211-.373-.426a3.976 3.976 0 0 1-.621-1.437c-.409-1.97.62-4.348 2.768-5.892 2.148-1.544 5.13-1.864 6.85-.586.3.225.563.495.781.799.116.146.211.307.284.479 1.083 2.076.071 5.022-2.413 6.85-2.485 1.828-5.626 1.864-7.276.213Z"/><path fill="#212529" d="M65.707 143.755c-1.331 0-2.556-.426-3.426-1.295a5.122 5.122 0 0 1-.408-.462 4.486 4.486 0 0 1-.639-1.348.429.429 0 0 1 .178-.462.422.422 0 0 1 .497-.018c1.65 1.083 4.223.817 6.264-.674 2.041-1.491 3.035-3.674 2.627-5.555l-.195-.905.763.55a3.954 3.954 0 0 1 1.171 1.402c1.171 2.254.071 5.395-2.538 7.294a7.416 7.416 0 0 1-4.294 1.473Zm-3.532-2.626c.089.142.177.301.284.443.096.138.203.269.32.391 1.561 1.544 4.49 1.437 6.814-.249 2.325-1.703 3.319-4.454 2.325-6.406-.089-.142-.16-.284-.266-.444l-.053-.053c-.018 1.881-1.136 3.904-3 5.253-1.863 1.349-4.56 1.863-6.424 1.065Z"/><path fill="#212529" d="M64.287 141.555a4.866 4.866 0 0 1-2.964-.923l-.106-.089-.036-.124c-.444-2.148.728-4.668 2.91-6.265 2.184-1.597 5.378-1.97 7.277-.568l.107.089v.124c.46 2.148-.71 4.668-2.893 6.265-1.331.976-2.875 1.491-4.295 1.491Zm-2.431-1.42c1.65 1.136 4.223.887 6.318-.639 1.934-1.402 2.981-3.567 2.662-5.413-1.65-1.136-4.224-.87-6.336.657-2.112 1.526-2.964 3.549-2.644 5.395Z"/><path fill="#212529" d="M71.297 139.23a.361.361 0 0 1-.32-.213l-.745-1.562a.36.36 0 0 1 .657-.302l.727 1.562a.373.373 0 0 1-.177.479l-.142.036ZM69.54 140.738a.36.36 0 0 1-.177-.056.364.364 0 0 1-.124-.139l-.586-1.047a.357.357 0 0 1 .142-.497.373.373 0 0 1 .48.142l.585 1.065a.355.355 0 0 1-.142.479.296.296 0 0 1-.178.053ZM66.434 142.619a.332.332 0 0 1-.32-.195l-.656-1.26a.358.358 0 0 1 .16-.479.359.359 0 0 1 .479.16l.639 1.26a.353.353 0 0 1-.142.479l-.16.035ZM63.577 140.064c-.284 0-.78-.125-.958-.55-.178-.426.302-1.704 1.846-3.23 1.544-1.527 2.84-2.254 3.868-2.166a1.445 1.445 0 0 1 1.03.497.373.373 0 0 1-.089.497.356.356 0 0 1-.48-.071.785.785 0 0 0-.55-.213c-.46-.035-1.49.196-3.282 1.953-1.793 1.756-1.722 2.395-1.687 2.449.036.053.249.124.302.124h.018a.373.373 0 0 1 .355.337.388.388 0 0 1-.355.373h-.018Z"/><path fill="#F8F9FA" d="M119.977 141.058a6.089 6.089 0 0 0-.035-.799 4.918 4.918 0 0 0-.71-2.112c-1.438-2.449-4.81-3.957-8.537-3.549-4.028.426-7.17 2.964-7.755 5.945a5.201 5.201 0 0 0-.053 1.58c.02.264.067.526.142.78.869 3.213 4.738 5.36 9.104 4.881 4.366-.479 7.684-3.39 7.844-6.726Z"/><path fill="#212529" d="M110.926 148.21c-3.975 0-7.4-2.112-8.235-5.218a5.786 5.786 0 0 1-.159-.834 5.411 5.411 0 0 1 .035-1.509.416.416 0 0 1 .114-.223c.061-.06.139-.1.223-.114a.406.406 0 0 1 .426.178c1.456 2.325 4.703 3.638 8.129 3.265 3.744-.408 6.797-2.697 7.418-5.572a.392.392 0 0 1 .319-.32.43.43 0 0 1 .408.195 5.55 5.55 0 0 1 .693 2.165c.029.283.041.568.035.852-.177 3.55-3.674 6.567-8.164 7.064a14.77 14.77 0 0 1-1.242.071Zm-7.72-6.673c0 .177 0 .355.018.532.018.178.089.515.142.746.834 3.088 4.579 5.075 8.731 4.614 4.135-.444 7.365-3.195 7.525-6.389a5.638 5.638 0 0 0-.035-.746 4.355 4.355 0 0 0-.267-1.153c-1.029 2.786-4.099 4.916-7.79 5.306-3.337.373-6.585-.781-8.324-2.91Z"/><path fill="#212529" d="M110.305 144.518c-3.301 0-6.282-1.437-7.666-3.798l-.071-.106.035-.142c.621-3.212 3.94-5.786 8.057-6.229 3.763-.408 7.33 1.082 8.892 3.727l.053.106v.142c-.621 3.23-3.94 5.786-8.057 6.229a9.381 9.381 0 0 1-1.243.071Zm-6.974-4.028c1.437 2.325 4.685 3.638 8.128 3.265 3.745-.408 6.779-2.68 7.401-5.537-1.438-2.342-4.686-3.638-8.129-3.265-3.744.408-6.779 2.662-7.4 5.537Z"/><path fill="#212529" d="M107.217 147.216a.354.354 0 0 1-.355-.302l-.355-3.283a.316.316 0 0 1 .006-.137.329.329 0 0 1 .164-.213.34.34 0 0 1 .132-.041.357.357 0 0 1 .39.32l.373 3.265a.362.362 0 0 1-.079.262.34.34 0 0 1-.241.129h-.035ZM110.855 147.855a.358.358 0 0 1-.355-.32l-.408-3.318a.388.388 0 0 1 .319-.409.362.362 0 0 1 .262.079.34.34 0 0 1 .129.241l.408 3.336a.344.344 0 0 1-.013.139.339.339 0 0 1-.065.123.373.373 0 0 1-.108.089.366.366 0 0 1-.133.04h-.036ZM116.108 146.896a.352.352 0 0 1-.355-.284l-.692-3.638a.37.37 0 0 1 .284-.426.358.358 0 0 1 .408.284l.71 3.656a.357.357 0 0 1-.284.408h-.071ZM106.046 139.904a.359.359 0 0 1-.24-.091.359.359 0 0 1-.115-.228c-.018-.071-.071-.71.55-1.367.976-1.047 2.999-1.526 6.034-1.384 3.035.142 4.561.621 4.88 1.526.213.568-.195 1.118-.461 1.349a.359.359 0 0 1-.466-.062.355.355 0 0 1 .004-.471s.355-.319.249-.585c-.107-.266-.586-.905-4.242-1.047-3.656-.142-4.88.532-5.448 1.135-.568.604-.39.817-.39.835a.374.374 0 0 1-.32.39h-.035ZM74.793 80.7c-1.544 0-2.396-1.03-2.786-1.74-.426.498-1.296 1.101-2.946.924-2.307-.267-2.804-2.325-2.893-3.355-.657.267-1.97.71-3.07-.177-.834-.675-1.136-1.704-.834-2.857-.923.106-2.556-.107-3.55-1.19-.993-1.082-1.047-2.111-.674-3.69-.887.177-1.899.194-2.325-.374-.426-.567-.213-1.047.284-1.845l.603.372c-.461.746-.354.994-.319 1.047.035.054.799.302 1.917.036a.533.533 0 0 1 .479.142.569.569 0 0 1 .124.497c-.408 1.473-.248 2.591.426 3.336.674.746 2.45 1.065 3.07.959a.568.568 0 0 1 .568.177.622.622 0 0 1 .124.586c-.195.656-.266 1.58.55 2.254.817.674 1.864.301 2.574-.036l.07-.035a.444.444 0 0 1 .444.035.514.514 0 0 1 .231.39c.018.64.231 2.787 2.272 3.018 1.597.177 2.254-.48 2.502-.888a.462.462 0 0 1 .444-.23.425.425 0 0 1 .39.266c.249.532.959 1.757 2.485 1.668 1.526-.089 1.846-.958 1.988-1.49a.444.444 0 0 1 .337-.338.533.533 0 0 1 .479.142c.515.586 1.899 1.846 3.567.87 1.668-.976 1.278-1.81.923-2.503a.514.514 0 0 1 .071-.55.497.497 0 0 1 .532-.106c.817.32 2.698.62 3.213.017.514-.603-.178-2.165-.444-2.59a.567.567 0 0 1-.036-.48.531.531 0 0 1 .373-.302c.515-.106 2.2-.55 2.786-1.739.32-.674.249-1.508-.213-2.467a.568.568 0 0 1 .316-.794.586.586 0 0 1 .323-.022c.675.124 2.29.337 2.467-.586l.692.142c-.213 1.047-1.313 1.473-3.052 1.172.461 1.082.497 2.04.106 2.857-.639 1.296-2.183 1.863-3.017 2.076.426.781 1.065 2.254.249 3.195-.817.94-2.591.603-3.55.337.231.745.266 2.005-1.384 2.964-1.65.958-3.46-.036-4.188-.728-.266.64-.923 1.544-2.503 1.633h-.195Z"/><path fill="#F8F9FA" d="M51.083 61.959a5.414 5.414 0 0 1-2.396-.621l-.07-.036a.373.373 0 0 1-.25-.355.355.355 0 0 1 .356-.355.622.622 0 0 1 .301.107c2.307 1.189 4.437.426 6.159-2.219a.355.355 0 0 1 .593-.01.338.338 0 0 1-.008.383c-1.313 2.059-2.928 3.106-4.685 3.106Z"/><path fill="#212529" d="M109.329 104.658h-.053a.372.372 0 0 1-.302-.408c.053-.248 3.745-25.946-1.828-33.027-.035-.036-2.839-3.62-4.295-4.668-1.029-.745-.993-2.2-.39-3.123s1.508-1.136 2.414-.604c.04.022.076.053.105.09a.337.337 0 0 1 .019.39.355.355 0 0 1-.479.124c-.799-.462-1.296.106-1.473.373-.426.674-.444 1.703.213 2.165 1.544 1.118 4.33 4.667 4.436 4.81 5.768 7.329 2.148 32.512 1.988 33.577a.356.356 0 0 1-.355.301Z"/></svg>