<svg id="Grupo_103" data-name="Grupo 103" xmlns="http://www.w3.org/2000/svg" width="124.395" height="24" viewBox="0 0 124.395 24"><path id="Caminho_1" data-name="Caminho 1" d="M470.54,3245.06h-3.232a.4.4,0,0,1-.4-.4v-19.4a.4.4,0,0,1,.4-.4h3.232a.4.4,0,0,1,.4.4v1.13a9,9,0,0,1,2.409-1.143,9.093,9.093,0,0,1,11.734,8.7v10.708a.4.4,0,0,1-.4.4H481.45a.4.4,0,0,1-.4-.4v-10.708a5.051,5.051,0,1,0-10.1,0v10.708a.4.4,0,0,1-.4.4" transform="translate(-422.076 -3221.06)" fill="#005fff"></path><path id="Caminho_2" data-name="Caminho 2" d="M556.831,3209.071a.4.4,0,0,1,.4.4v12.65l9.147-9.147a.405.405,0,0,1,.286-.119h4.571a.4.4,0,0,1,.286.69l-9.413,9.412,9.413,9.412a.4.4,0,0,1-.286.69h-4.571a.4.4,0,0,1-.286-.119l-7.127-7.126-2.02,2.02v4.821a.4.4,0,0,1-.4.4H553.6a.4.4,0,0,1-.4-.4v-23.185a.4.4,0,0,1,.4-.4" transform="translate(-487.658 -3209.064)" fill="#005fff"></path><path id="Caminho_3" data-name="Caminho 3" d="M290.223,3216.877a6.061,6.061,0,1,0,6.061,6.061,6.052,6.052,0,0,0-6.061-6.061m0,16.164a10.107,10.107,0,0,1-10.1-10.1v-13.493a.4.4,0,0,1,.4-.4h3.233a.4.4,0,0,1,.4.4v5.415a10.1,10.1,0,1,1,6.061,18.182Z" transform="translate(-280.121 -3209.042)" fill="#005fff"></path><path id="Caminho_4" data-name="Caminho 4" d="M382.3,3241.018a6.061,6.061,0,1,0-6.061-6.061,6.051,6.051,0,0,0,6.061,6.061m10.1-6.061v9.7a.4.4,0,0,1-.4.4h-3.232a.4.4,0,0,1-.4-.4v-1.619a10.1,10.1,0,1,1,4.041-8.079Z" transform="translate(-350.096 -3221.06)" fill="#005fff"></path><g id="Grupo_2" data-name="Grupo 2" transform="translate(83.985 3.795)"><path id="Caminho_5" data-name="Caminho 5" d="M660.373,3224.854h-20.2a10.1,10.1,0,0,0,0,20.2h20.2a10.1,10.1,0,1,0,0-20.2Zm5.811,10.215-8.408,1.531a2.8,2.8,0,0,0,1.045,1.236,2.891,2.891,0,0,0,1.985.428,3.247,3.247,0,0,0,2.663-1.809.293.293,0,0,1,.348-.144l1.967.623a.293.293,0,0,1,.172.414,6.056,6.056,0,0,1-5.563,3.67,5.953,5.953,0,0,1-2.479-.555,6.287,6.287,0,0,1-2.077-1.539v1.754a.294.294,0,0,1-.294.294h-2.49a.294.294,0,0,1-.294-.294v-6.19a2.853,2.853,0,0,0-.7-1.946,2.444,2.444,0,0,0-3.5.011,2.874,2.874,0,0,0-.711,1.959v6.166a.293.293,0,0,1-.293.294h-2.468a.294.294,0,0,1-.294-.294v-6.19a2.832,2.832,0,0,0-.707-1.942,2.459,2.459,0,0,0-3.516.008,2.874,2.874,0,0,0-.711,1.959v6.166a.293.293,0,0,1-.293.294h-2.42a.294.294,0,0,1-.294-.294v-11.16a.294.294,0,0,1,.294-.293h2.42a.293.293,0,0,1,.293.293v.882a4.774,4.774,0,0,1,1.478-1.005,4.288,4.288,0,0,1,1.693-.358,4.739,4.739,0,0,1,2.141.491,4.518,4.518,0,0,1,1.641,1.412,4.408,4.408,0,0,1,1.771-1.415,5.927,5.927,0,0,1,2.436-.489,4.635,4.635,0,0,1,2.509.708,4.745,4.745,0,0,1,1.724,1.982,6.048,6.048,0,0,1,11.168,2.979C666.432,3234.876,666.379,3235.033,666.185,3235.068Z" transform="translate(-630.066 -3224.854)" fill="#005fff" fill-rule="evenodd"></path><path id="Caminho_6" data-name="Caminho 6" d="M748.19,3253.2a2.926,2.926,0,0,0-1.715-.4l-.025,0a2.751,2.751,0,0,0-1.645.734,3.075,3.075,0,0,0-.933,1.637l-.071.379,5.664-1.011A3.238,3.238,0,0,0,748.19,3253.2Z" transform="translate(-716.505 -3246.09)" fill="#005fff" fill-rule="evenodd"></path></g></svg>